<svg width="200" height="59" viewBox="0 0 200 59" fill="none" xmlns="http://www.w3.org/2000/svg">
<path d="M39.935 21.7624C39.935 24.1611 39.935 26.5579 39.935 28.9529C39.9639 32.0247 39.1208 35.0416 37.5037 37.6534C34.9578 41.7911 31.2645 44.3778 26.5081 45.4299C24.9253 45.7672 23.3006 45.8637 21.689 45.7161C18.1553 45.4263 14.8034 44.028 12.1113 41.7207C9.41924 39.4134 7.52457 36.3148 6.69755 32.867C6.38723 31.5605 6.2308 30.2222 6.23145 28.8793C6.23145 23.844 6.23145 18.8105 6.23145 13.7788C6.23145 13.6343 6.23145 13.4899 6.23145 13.3481C6.24191 13.0163 6.37967 12.7013 6.61616 12.4684C6.85265 12.2354 7.16973 12.1025 7.50164 12.097C8.09446 12.0756 8.68694 12.1483 9.257 12.3124C12.1326 13.1301 13.8907 15.0108 14.5422 17.9273C14.6391 18.4301 14.6802 18.942 14.6648 19.4538C14.6648 22.5211 14.6648 25.5894 14.6648 28.6585C14.6648 29.6152 14.6648 30.5665 14.6648 31.5342C14.6749 33.4194 15.2997 35.2498 16.4444 36.7477C17.5891 38.2456 19.1912 39.3292 21.0076 39.834C22.0644 40.1324 23.1699 40.2176 24.2599 40.0846C25.35 39.9516 26.4026 39.6031 27.3566 39.0593C28.3106 38.5156 29.1469 37.7874 29.8167 36.9173C30.4866 36.0472 30.9767 35.0525 31.2584 33.9911C31.5401 32.9298 31.6078 31.823 31.4576 30.7352C31.3074 29.6475 30.9423 28.6005 30.3835 27.6552C29.8247 26.7099 29.0834 25.8852 28.2028 25.2292C27.3222 24.5732 26.3199 24.0989 25.2543 23.834C24.5565 23.6539 23.8379 23.5668 23.1173 23.575C22.7856 23.5878 22.4686 23.7151 22.2201 23.9353C21.9717 24.1554 21.8071 24.4548 21.7544 24.7825C21.6967 25.1247 21.7659 25.4761 21.9491 25.7708C22.1323 26.0655 22.4169 26.283 22.7493 26.3825C22.9341 26.4376 23.1263 26.4634 23.319 26.4589C23.7507 26.4618 24.18 26.5242 24.5946 26.6442C25.7575 26.9603 26.7811 27.6566 27.5021 28.6222C28.2232 29.5878 28.6001 30.767 28.5728 31.9718C28.5455 33.1765 28.1156 34.3375 27.3516 35.2694C26.5876 36.2014 25.5335 36.8507 24.3575 37.1137C23.2157 37.3627 22.0244 37.2448 20.9535 36.7768C19.8826 36.3089 18.9867 35.5149 18.3936 34.5079C17.8282 33.5922 17.5299 32.5368 17.5323 31.4606C17.5323 26.6833 17.5323 21.9051 17.5323 17.126C17.5322 16.7745 17.5865 16.4251 17.6931 16.0902C18.051 14.8799 18.8064 13.8255 19.8373 13.0974C20.8683 12.3693 22.1145 12.0099 23.3749 12.0774C24.6352 12.1448 25.836 12.6351 26.7833 13.469C27.7307 14.303 28.3693 15.4319 28.596 16.6735C28.6287 16.8452 28.6505 17.0197 28.6887 17.1914C28.7095 17.3187 28.7691 17.4365 28.8594 17.5287C28.9496 17.6209 29.0661 17.683 29.1929 17.7066C29.3202 17.7282 29.451 17.7093 29.5669 17.6525C29.6828 17.5958 29.7779 17.5041 29.8389 17.3904C29.8907 17.3113 29.9316 17.2241 29.9807 17.1396C30.6681 15.9155 31.609 14.8524 32.7405 14.0213C33.8719 13.1902 35.1678 12.6104 36.5415 12.3205C37.2273 12.1594 37.9304 12.0834 38.6348 12.0943C38.9092 12.0951 39.1763 12.1828 39.3976 12.345C39.619 12.5071 39.7833 12.7352 39.8669 12.9965C39.9108 13.1496 39.9292 13.309 39.9214 13.4681C39.9214 13.8061 39.9214 14.1413 39.9214 14.4766L39.935 21.7624Z" fill="#00C84B"/>
<path d="M105.183 34.8949V39.3515C105.183 39.4805 105.183 39.6086 105.183 39.7358C105.184 39.7679 105.172 39.799 105.15 39.8224C105.128 39.8458 105.098 39.8597 105.066 39.8612C105.002 39.8653 104.938 39.8653 104.875 39.8612H101.331C101.266 39.8612 101.203 39.8612 101.141 39.8612C101.121 39.8612 101.101 39.8572 101.083 39.8492C101.064 39.8413 101.048 39.8297 101.034 39.8151C101.021 39.8005 101.01 39.7832 101.004 39.7644C100.997 39.7456 100.995 39.7257 100.996 39.7058C100.996 39.5613 100.996 39.4169 100.996 39.2724C100.996 36.4467 100.996 33.6193 100.996 30.79C101.012 30.503 100.99 30.2152 100.931 29.9341C100.791 29.3284 100.474 28.7779 100.021 28.3523C99.5675 27.9268 98.9981 27.6453 98.3848 27.5436C97.8021 27.414 97.1948 27.4489 96.6307 27.6443C96.0666 27.8397 95.5679 28.188 95.1903 28.6503C94.7058 29.193 94.4448 29.8991 94.4598 30.6264C94.4598 32.6544 94.4598 34.6832 94.4598 36.713V39.3487C94.4598 39.4769 94.4598 39.605 94.4598 39.7303C94.4605 39.7464 94.458 39.7626 94.4525 39.7777C94.4471 39.7929 94.4386 39.8068 94.4277 39.8187C94.4168 39.8306 94.4037 39.8402 94.3891 39.8471C94.3745 39.8539 94.3587 39.8578 94.3426 39.8585C94.2799 39.8585 94.2145 39.8585 94.1518 39.8585H90.562C90.4966 39.8585 90.4339 39.8585 90.3685 39.8585C90.3488 39.8581 90.3293 39.8539 90.3113 39.846C90.2932 39.8381 90.2769 39.8268 90.2632 39.8126C90.2496 39.7984 90.2388 39.7817 90.2316 39.7634C90.2244 39.7451 90.2209 39.7255 90.2213 39.7058C90.2213 39.5613 90.2213 39.4169 90.2213 39.2751V30.7436C90.233 30.4697 90.2129 30.1952 90.1613 29.9259C90.0064 29.3485 89.6985 28.8236 89.2702 28.4066C88.8419 27.9895 88.309 27.6957 87.7277 27.5562C87.1464 27.4167 86.5382 27.4365 85.9673 27.6137C85.3963 27.7909 84.8838 28.1189 84.4836 28.5631C83.9691 29.1008 83.6829 29.8168 83.685 30.561C83.685 31.3433 83.685 32.1256 83.685 32.9106V39.4278C83.685 39.8748 83.685 39.853 83.2734 39.853H79.9317C79.8335 39.853 79.7381 39.853 79.6427 39.853C79.6229 39.8527 79.6034 39.8483 79.5853 39.8403C79.5672 39.8322 79.5509 39.8206 79.5374 39.806C79.524 39.7915 79.5135 39.7745 79.5068 39.7558C79.5001 39.7372 79.4972 39.7174 79.4983 39.6976C79.4983 39.6022 79.4983 39.5041 79.4983 39.4087C79.4983 36.454 79.4983 33.4984 79.4983 30.5419C79.4937 29.6771 79.6614 28.82 79.9916 28.0206C80.3241 27.1941 80.8281 26.4475 81.4704 25.8301C82.1127 25.2127 82.8787 24.7386 83.7177 24.439C85.434 23.7821 87.3133 23.6811 89.0901 24.1501C90.213 24.4288 91.2414 25.0018 92.0693 25.8101C92.1156 25.8564 92.1647 25.9 92.2083 25.9464C92.2195 25.9626 92.2342 25.976 92.2514 25.9857C92.2685 25.9955 92.2876 26.0012 92.3072 26.0025C92.3269 26.0038 92.3466 26.0007 92.3649 25.9933C92.3831 25.986 92.3995 25.9746 92.4128 25.96C92.5109 25.8755 92.6008 25.7828 92.6853 25.6874C93.8166 24.6819 95.2396 24.064 96.7466 23.9239C98.0692 23.764 99.4108 23.8999 100.674 24.3218C102.825 25.0659 104.278 26.5024 104.929 28.713C105.105 29.3111 105.19 29.9322 105.183 30.5556C105.18 32.0274 105.183 33.4639 105.183 34.8949Z" fill="white"/>
<path d="M133.968 38.1084V45.9612C133.968 46.0893 133.968 46.2175 133.968 46.3428C133.968 46.5773 133.946 46.5963 133.731 46.6154C133.635 46.6154 133.54 46.6154 133.444 46.6154H130.274C130.146 46.6154 130.018 46.6154 129.89 46.6154C129.874 46.6162 129.858 46.6137 129.843 46.6081C129.829 46.6026 129.815 46.594 129.804 46.5831C129.792 46.5721 129.783 46.559 129.777 46.5444C129.771 46.5298 129.767 46.5141 129.767 46.4982C129.767 46.3856 129.767 46.2738 129.767 46.163C129.767 41.5292 129.767 36.8955 129.767 32.2618C129.752 31.0599 129.968 29.8663 130.402 28.7456C130.803 27.6517 131.464 26.672 132.329 25.8916C133.194 25.1112 134.237 24.5536 135.366 24.2672C137.15 23.7661 139.04 23.7793 140.817 24.3054C143.137 24.9841 144.704 26.5105 145.59 28.7401C146.152 30.1913 146.364 31.7545 146.209 33.303C146.154 34.1007 145.983 34.886 145.699 35.6335C144.669 38.2066 142.788 39.7221 140.046 40.1745C139.002 40.3585 137.931 40.3035 136.911 40.0137C135.889 39.7295 134.973 39.1479 134.281 38.3429C134.21 38.2584 134.137 38.1793 134.063 38.0975L133.968 38.1084ZM141.968 32.1691C141.976 31.7172 141.936 31.2658 141.848 30.8226C141.769 30.4469 141.648 30.0811 141.488 29.7323C140.577 27.7752 138.686 27.1238 136.77 27.6826C136.285 27.829 135.838 28.0774 135.457 28.4112C135.077 28.7451 134.773 29.1565 134.565 29.6178C134.164 30.4403 133.976 31.3505 134.019 32.2645C134.023 33.1147 134.236 33.9508 134.641 34.6986C134.896 35.191 135.26 35.6188 135.706 35.9494C136.151 36.28 136.666 36.5048 137.211 36.6066C137.606 36.6719 138.007 36.6857 138.405 36.6475C139.079 36.6089 139.727 36.3697 140.264 35.9606C140.829 35.5292 141.268 34.954 141.534 34.2951C141.826 33.6245 141.973 32.9003 141.968 32.1691Z" fill="white"/>
<path d="M54.7713 26.0629C54.8279 26.052 54.8815 26.0291 54.9286 25.9957C54.9756 25.9623 55.0149 25.9192 55.0439 25.8694C55.905 24.8405 57.1189 24.1699 58.4483 23.9886C59.7821 23.7664 61.1512 23.9076 62.4115 24.3975C64.6357 25.2588 66.0286 26.8997 66.7045 29.1648C66.9606 30.0731 67.0755 31.0154 67.0452 31.9586C67.045 33.1282 66.8298 34.2877 66.4102 35.3794C65.3498 38.0261 63.4119 39.6097 60.5962 40.0949C59.0642 40.3801 57.4865 40.2979 55.9924 39.855C53.4275 39.07 51.7839 37.3446 50.9852 34.8015C50.7317 33.976 50.595 33.1191 50.5791 32.2557C50.5791 31.9668 50.5791 31.6806 50.5791 31.3917C50.5791 26.9651 50.5791 22.5394 50.5791 18.1147C50.5791 17.4496 50.4892 17.5477 51.1706 17.5423H54.2888C54.4006 17.5423 54.5123 17.5423 54.6241 17.5423C54.6442 17.5408 54.6644 17.5435 54.6834 17.5502C54.7024 17.5569 54.7198 17.5676 54.7344 17.5815C54.749 17.5953 54.7606 17.6121 54.7684 17.6307C54.7761 17.6493 54.7799 17.6693 54.7795 17.6895C54.7795 17.8339 54.7795 17.9757 54.7795 18.1201V26.0629H54.7713ZM62.7604 32.0922C62.7811 31.3072 62.6284 30.5273 62.3134 29.808C61.4084 27.7746 59.4814 27.1123 57.5488 27.682C56.4721 27.9981 55.7553 28.7532 55.2864 29.7535C55.0235 30.337 54.8675 30.9629 54.8258 31.6016C54.7339 32.5605 54.8956 33.5268 55.2946 34.4036C56.066 36.0554 57.5761 36.9249 59.5958 36.5842C60.1502 36.4883 60.6735 36.2607 61.1217 35.9206C61.5699 35.5806 61.93 35.1379 62.1716 34.6298C62.5817 33.8482 62.7844 32.9745 62.7604 32.0922Z" fill="white"/>
<path d="M169.978 37.3478C169.869 37.5113 169.781 37.6421 169.691 37.773C168.988 38.877 167.902 39.6825 166.641 40.0353C165.259 40.4278 163.787 40.3625 162.446 39.8491C161.104 39.3357 159.964 38.4017 159.197 37.1869C158.471 36.0722 158.013 34.8043 157.859 33.4827C157.689 32.2447 157.756 30.9857 158.058 29.773C158.412 28.3097 159.193 26.985 160.303 25.968C161.413 24.9509 162.801 24.2875 164.289 24.0626C165.726 23.8006 167.203 23.8527 168.617 24.2152C171.019 24.8612 172.665 26.3795 173.608 28.6691C174.032 29.7075 174.25 30.8184 174.249 31.9399C174.265 34.483 174.249 37.0234 174.249 39.5719C174.253 39.6355 174.253 39.6992 174.249 39.7628C174.249 39.7946 174.237 39.8254 174.215 39.8486C174.193 39.8719 174.163 39.8861 174.132 39.8881C174.052 39.8922 173.972 39.8922 173.892 39.8881H170.386H170.196C170.176 39.8882 170.156 39.8841 170.138 39.8762C170.119 39.8683 170.103 39.8566 170.089 39.842C170.076 39.8274 170.065 39.8102 170.059 39.7914C170.052 39.7726 170.05 39.7526 170.051 39.7328C170.051 39.621 170.051 39.5093 170.051 39.3975C170.051 38.8233 170.051 38.2482 170.051 37.6721C170.061 37.6159 170.06 37.5582 170.047 37.5025C170.035 37.4467 170.011 37.3941 169.978 37.3478ZM169.959 32.068C169.959 31.8609 169.972 31.651 169.959 31.4466C169.899 30.6305 169.631 29.8433 169.182 29.1597C168.731 28.4511 168.043 27.9256 167.241 27.6769C166.442 27.4275 165.587 27.4275 164.788 27.6769C164.275 27.8401 163.805 28.1128 163.408 28.4762C163.012 28.8396 162.7 29.2849 162.493 29.7812C162.232 30.3654 162.082 30.993 162.051 31.6319C161.971 32.563 162.123 33.4995 162.493 34.3577C163.4 36.4074 165.374 37.0398 167.266 36.4864C168.309 36.1812 169.007 35.4479 169.471 34.4885C169.834 33.7316 170.002 32.8956 169.959 32.0571V32.068Z" fill="white"/>
<path d="M121.048 37.3614L120.776 37.743C120.125 38.7609 119.149 39.5292 118.007 39.9236C117.167 40.196 116.282 40.297 115.403 40.2207C114.861 40.1886 114.323 40.0916 113.803 39.9318C112.522 39.5102 111.403 38.7028 110.598 37.6203C109.854 36.6389 109.342 35.5022 109.099 34.295C108.72 32.7006 108.769 31.0344 109.241 29.465C110.192 26.4476 112.239 24.6432 115.36 24.0599C116.731 23.801 118.142 23.8335 119.5 24.1553C120.583 24.3903 121.596 24.8735 122.461 25.5669C123.325 26.2604 124.016 27.145 124.48 28.1512C125.041 29.3198 125.331 30.6 125.328 31.8963C125.341 33.4118 125.328 34.9301 125.328 36.4483C125.328 37.4077 125.328 38.3663 125.328 39.3239C125.328 39.452 125.328 39.5801 125.328 39.7082C125.33 39.7281 125.327 39.7481 125.321 39.7671C125.315 39.786 125.305 39.8035 125.292 39.8183C125.278 39.8332 125.262 39.8451 125.244 39.8534C125.226 39.8616 125.206 39.866 125.186 39.8663H124.946H121.495C121.414 39.8663 121.335 39.8663 121.256 39.8663C121.223 39.8663 121.193 39.8538 121.17 39.8314C121.147 39.809 121.134 39.7785 121.133 39.7464C121.133 39.6346 121.133 39.5229 121.133 39.4111C121.133 38.8197 121.133 38.2282 121.133 37.6367C121.119 37.5549 121.16 37.4568 121.048 37.3614ZM121.073 32.0435C121.054 31.7709 121.046 31.4984 121.013 31.2258C120.936 30.508 120.695 29.8177 120.307 29.2088C120.047 28.7851 119.703 28.4197 119.295 28.1354C118.888 27.8512 118.426 27.6542 117.938 27.557C117.544 27.4871 117.143 27.4687 116.744 27.5024C115.974 27.5367 115.236 27.8241 114.646 28.3202C114.096 28.7891 113.68 29.3945 113.438 30.0755C113.166 30.863 113.064 31.699 113.138 32.5287C113.177 33.1668 113.334 33.7924 113.599 34.374C114.501 36.3611 116.469 37.0043 118.355 36.4456C118.807 36.3038 119.226 36.0718 119.585 35.7635C119.944 35.4552 120.237 35.077 120.446 34.652C120.867 33.8474 121.082 32.9514 121.073 32.0435Z" fill="white"/>
<path d="M194.035 39.8449C193.93 39.885 193.816 39.8972 193.705 39.8804H190.107C189.925 39.8804 189.9 39.8477 189.892 39.6487C189.892 39.5206 189.892 39.3925 189.892 39.2644C189.892 36.5623 189.892 33.862 189.892 31.1635C189.901 30.797 189.864 30.4308 189.783 30.0732C189.595 29.345 189.174 28.6986 188.583 28.2333C187.992 27.768 187.265 27.5096 186.513 27.4979C185.762 27.4861 185.027 27.7216 184.422 28.1682C183.817 28.6147 183.375 29.2477 183.165 29.9696C183.071 30.3253 183.025 30.692 183.029 31.0599C183.029 33.7856 183.029 36.5177 183.029 39.2562C183.029 39.9894 183.127 39.8776 182.391 39.8831C181.352 39.8831 180.314 39.8831 179.273 39.8831H178.986C178.966 39.8842 178.947 39.8812 178.928 39.8743C178.909 39.8674 178.892 39.8567 178.878 39.8428C178.864 39.829 178.852 39.8124 178.845 39.794C178.837 39.7756 178.833 39.7558 178.834 39.7359C178.834 39.6241 178.834 39.5124 178.834 39.4006C178.834 36.6204 178.834 33.8402 178.834 31.0599C178.808 29.8885 179.068 28.7285 179.591 27.68C180.012 26.8589 180.598 26.1334 181.311 25.549C182.025 24.9646 182.852 24.5339 183.74 24.2838C184.83 23.9574 185.972 23.8354 187.106 23.924C187.986 23.959 188.855 24.1338 189.679 24.4419C192.178 25.4449 193.632 27.2775 194.041 29.9396C194.085 30.3013 194.102 30.6657 194.092 31.0299C194.092 33.8102 194.092 36.5895 194.092 39.3679C194.113 39.5292 194.093 39.693 194.035 39.8449Z" fill="white"/>
<path d="M149.906 28.7216C149.906 25.1745 149.906 21.631 149.906 18.0912C149.906 17.4861 149.835 17.5461 150.437 17.5461H153.602C153.73 17.5461 153.858 17.5461 153.984 17.5461C154.016 17.5468 154.046 17.56 154.069 17.5829C154.091 17.6059 154.104 17.6367 154.104 17.6687C154.104 17.7814 154.104 17.8931 154.104 18.004V39.3764C154.104 39.9079 154.142 39.8725 153.618 39.8725H150.075C149.955 39.8725 149.906 39.8016 149.906 39.6899C149.906 39.5781 149.906 39.4037 149.906 39.2592V28.7216Z" fill="white"/>
<path d="M70.7129 32.0741V24.7882C70.7129 24.2049 70.6665 24.2676 71.2171 24.2676H74.4335C74.5589 24.2676 74.687 24.2676 74.8151 24.2676C74.8309 24.2676 74.8466 24.2708 74.8612 24.277C74.8758 24.2832 74.889 24.2924 74.8999 24.3038C74.9109 24.3153 74.9194 24.3289 74.925 24.3437C74.9305 24.3586 74.933 24.3744 74.9323 24.3902C74.9323 24.502 74.9323 24.6138 74.9323 24.7255V39.3953C74.9323 39.9051 74.9595 39.8696 74.4716 39.8696H70.8846C70.7619 39.8696 70.7183 39.7988 70.7156 39.6897C70.7129 39.5807 70.7156 39.4335 70.7156 39.3054L70.7129 32.0741Z" fill="white"/>
<path d="M72.7962 17.1505C74.2081 17.0824 75.4647 18.3934 75.462 19.7781C75.4399 20.4643 75.1518 21.115 74.6587 21.5925C74.1655 22.0701 73.5059 22.3372 72.8194 22.3372C72.1328 22.3372 71.4732 22.0701 70.9801 21.5925C70.4869 21.115 70.1988 20.4643 70.1768 19.7781C70.1838 19.0848 70.4618 18.4218 70.9513 17.9308C71.4408 17.4398 72.1029 17.1597 72.7962 17.1505Z" fill="white"/>
</svg>
